<?xml version="1.0" encoding="UTF-8" standalone="no"?>
<!-- Created with Inkscape (http://www.inkscape.org/) -->
<svg
   xmlns:dc="http://purl.org/dc/elements/1.1/"
   xmlns:cc="http://web.resource.org/cc/"
   xmlns:rdf="http://www.w3.org/1999/02/22-rdf-syntax-ns#"
   xmlns:svg="http://www.w3.org/2000/svg"
   xmlns="http://www.w3.org/2000/svg"
   xmlns:sodipodi="http://sodipodi.sourceforge.net/DTD/sodipodi-0.dtd"
   xmlns:inkscape="http://www.inkscape.org/namespaces/inkscape"
   id="svg2211"
   sodipodi:version="0.32"
   inkscape:version="0.45.1"
   width="265"
   height="83"
   version="1.0"
   sodipodi:docbase="/home/kinto/rt_dimensions/images"
   sodipodi:docname="logo.svg"
   inkscape:output_extension="org.inkscape.output.svg.inkscape"
   inkscape:export-filename="/home/kinto/rt_dimensions/images/logo.png"
   inkscape:export-xdpi="90"
   inkscape:export-ydpi="90">
  <metadata
     id="metadata2216">
    <rdf:RDF>
      <cc:Work
         rdf:about="">
        <dc:format>image/svg+xml</dc:format>
        <dc:type
           rdf:resource="http://purl.org/dc/dcmitype/StillImage" />
      </cc:Work>
    </rdf:RDF>
  </metadata>
  <defs
     id="defs2214">
    <filter
       inkscape:collect="always"
       x="-0.08850326"
       width="1.1770065"
       y="-0.10488431"
       height="1.2097686"
       id="filter7343">
      <feGaussianBlur
         inkscape:collect="always"
         stdDeviation="24.675754"
         id="feGaussianBlur7345" />
    </filter>
    <filter
       inkscape:collect="always"
       id="filter10416">
      <feGaussianBlur
         inkscape:collect="always"
         stdDeviation="5.157997"
         id="feGaussianBlur10418" />
    </filter>
    <filter
       inkscape:collect="always"
       x="-0.026328885"
       width="1.0526578"
       y="-0.27132871"
       height="1.5426574"
       id="filter11449">
      <feGaussianBlur
         inkscape:collect="always"
         stdDeviation="2.4498633"
         id="feGaussianBlur11451" />
    </filter>
    <filter
       inkscape:collect="always"
       id="filter12458">
      <feGaussianBlur
         inkscape:collect="always"
         stdDeviation="6.1689385"
         id="feGaussianBlur12460" />
    </filter>
  </defs>
  <sodipodi:namedview
     inkscape:window-height="628"
     inkscape:window-width="872"
     inkscape:pageshadow="2"
     inkscape:pageopacity="0.0"
     guidetolerance="10.0"
     gridtolerance="10.0"
     objecttolerance="10.0"
     borderopacity="1.0"
     bordercolor="#666666"
     pagecolor="#ffffff"
     id="base"
     inkscape:showpageshadow="false"
     borderlayer="false"
     showborder="true"
     showguides="true"
     inkscape:guide-bbox="true"
     inkscape:zoom="3.8738761"
     inkscape:cx="92.072361"
     inkscape:cy="25.382764"
     inkscape:window-x="800"
     inkscape:window-y="107"
     inkscape:current-layer="svg2211">
    <sodipodi:guide
       orientation="vertical"
       position="132.63922"
       id="guide5259" />
  </sodipodi:namedview>
  <g
     transform="matrix(0.1178519,0,0,0.1178519,88.770137,-19.777179)"
     style="display:inline"
     id="layer1"
     inkscape:label="Layer 1">
    <g
       id="g9432"
       style="filter:url(#filter10416)">
      <path
         sodipodi:nodetypes="csccscccssscccssssc"
         id="path6087"
         d="M 513.59375,450.875 C 512.82056,450.8727 512.0286,450.88821 511.25,450.90625 C 498.79239,451.19491 485.79042,454.10628 477.3125,459.96875 C 470.01647,465.92782 467.45472,472.20152 476.5,479.25 C 487.87966,486.51094 525.88354,491.23315 544.19139,474.10153 C 548.88569,469.70882 551.21583,464.33406 541.9375,457.5 C 536.02569,453.22913 525.1916,450.90947 513.59375,450.875 z M 512.625,459.4375 C 523.76182,459.45067 534.67583,461.4107 540.90625,465.71875 C 544.14342,467.95713 543.76802,471.87329 541.4375,473.90625 C 525.50949,487.80055 489.82789,485.36417 478.21875,478.3125 C 472.33409,474.73804 475.30065,470.52099 478.15625,467.96875 C 483.64474,462.59856 498.30623,459.42057 512.625,459.4375 z M 512.0625,462.71875 C 503.91049,462.7435 494.90713,464.4366 489.5625,467.96875 C 484.84949,471.08349 487.30318,473.33935 489.09375,474.1875 C 500.19332,479.44506 519.36171,476.98298 527.5625,471.5 C 530.15472,469.76687 530.87054,467.53724 527.46875,465.5625 C 524.23069,463.68279 518.40295,462.6995 512.0625,462.71875 z "
         style="fill:#000000;fill-opacity:1;fill-rule:evenodd;stroke:none;stroke-width:0.2;stroke-linecap:butt;stroke-linejoin:miter;stroke-miterlimit:4;stroke-dasharray:none;stroke-opacity:1" />
      <path
         style="fill:#000000;fill-opacity:1;fill-rule:evenodd;stroke:none;stroke-width:0.2;stroke-linecap:butt;stroke-linejoin:miter;stroke-miterlimit:4;stroke-dasharray:none;stroke-opacity:1"
         d="M 504.24663,418.36312 C 504.97971,418.1173 505.72485,417.84859 506.45652,417.58178 C 518.16337,413.31268 529.5446,406.38485 535.69426,398.11289 C 540.69349,390.12851 541.10766,383.36461 530.27952,379.58973 C 517.1722,376.36235 479.66159,384.07908 467.81584,406.17768 C 464.77848,411.84398 464.29536,417.68214 475.27546,421.17918 C 482.24477,423.32823 493.25048,422.05039 504.24663,418.36312 z M 502.41784,409.94228 C 491.8652,413.50186 480.89914,415.14597 473.61613,413.06388 C 469.83204,411.98207 468.93153,408.1524 470.48686,405.47936 C 481.11685,387.21036 515.69472,378.07341 528.95227,381.02898 C 535.67251,382.52712 534.21527,387.47287 532.32916,390.80619 C 528.85308,397.65304 515.98553,405.36568 502.41784,409.94228 z M 501.89818,406.65398 C 509.61156,404.01584 517.59619,399.52443 521.52554,394.46465 C 524.99051,390.00281 521.9429,388.65314 519.9749,388.42411 C 507.77543,387.00442 490.40948,395.48454 484.40059,403.30818 C 482.50121,405.78117 482.53835,408.1226 486.39379,408.90191 C 490.06368,409.64373 495.8989,408.70586 501.89818,406.65398 z "
         id="path8043"
         sodipodi:nodetypes="csccscccssscccssssc" />
      <path
         style="fill:#000000;fill-opacity:1;fill-rule:evenodd;stroke:none;stroke-width:0.21367425;stroke-linecap:butt;stroke-linejoin:miter;stroke-miterlimit:4;stroke-dasharray:none;stroke-opacity:1"
         d="M 252.22008,408.33421 C 251.70263,408.96997 251.18964,409.63071 250.68798,410.28177 C 242.66137,420.69899 236.77296,432.96506 236.71348,443.07977 C 237.53372,452.27238 241.80896,457.73272 254.558,454.0444 C 269.06529,448.54641 298.8943,419.75871 294.75866,395.52853 C 293.69822,389.31567 290.12587,384.52614 277.42596,388.52093 C 269.41372,391.11087 259.98183,398.79786 252.22008,408.33421 z M 259.73942,413.70429 C 267.17363,404.53636 276.31586,396.59152 284.57586,393.75894 C 288.8676,392.2872 292.35174,394.68753 292.73722,397.69302 C 295.37182,418.23403 269.27008,446.32905 254.8094,452.12785 C 247.47935,455.06728 245.43504,450.37161 244.90429,446.65625 C 243.44103,439.26721 250.18114,425.49159 259.73942,413.70429 z M 262.49347,415.9197 C 257.08449,422.64888 252.69908,430.97025 252.50552,437.25937 C 252.33483,442.80524 256.12109,441.98833 258.12311,440.96605 C 270.53341,434.62907 280.95962,417.52273 281.19629,407.83895 C 281.27111,404.77801 279.62204,402.99774 275.47201,404.74585 C 271.52172,406.40983 266.70042,410.68591 262.49347,415.9197 z "
         id="path8045"
         sodipodi:nodetypes="csccscccssscccssssc" />
      <path
         inkscape:transform-center-x="9.1346586"
         inkscape:transform-center-y="-19.273347"
         style="fill:#000000;fill-opacity:1;fill-rule:evenodd;stroke:none;stroke-width:0.21258681;stroke-linecap:butt;stroke-linejoin:miter;stroke-miterlimit:4;stroke-dasharray:none;stroke-opacity:1"
         d="M 188.96892,633.70308 C 188.85543,634.4696 188.75919,635.25699 188.66773,636.03145 C 187.20419,648.42291 188.60227,661.68713 193.95715,670.8392 C 199.58985,678.83139 206.25435,682.16832 215.45236,674.09232 C 225.22338,663.72819 235.96816,626.63729 219.39217,606.30602 C 215.14193,601.09291 209.45179,598.09978 200.46069,606.43412 C 194.82553,611.75505 190.67131,622.20531 188.96892,633.70308 z M 198.42739,635.75066 C 200.03977,624.70741 203.80236,614.13224 209.5249,608.50004 C 212.49822,605.57369 216.83388,606.44307 218.77823,609.0124 C 232.06701,626.57255 224.21747,661.65047 214.64811,672.26877 C 209.79742,677.65116 205.49622,674.17382 203.04515,671.01783 C 197.8132,664.893 196.35434,649.94912 198.42739,635.75066 z M 202.02456,636.725 C 200.88286,644.81289 201.48905,653.95685 204.68142,659.70571 C 207.49653,664.77518 210.37705,662.62807 211.58458,660.95992 C 219.06989,650.61927 219.05999,631.29655 214.09072,622.46748 C 212.51997,619.67668 210.12354,618.68376 207.4221,621.80683 C 204.85069,624.77958 202.91254,630.43442 202.02456,636.725 z "
         id="path8047"
         sodipodi:nodetypes="csccscccssscccssssc" />
      <path
         sodipodi:nodetypes="cccccccsssccccccccccsccccccccsccccccssccscsscccccccscccccscccccscccccssscccccssccsssssscccccccsssccccccscccccccsscccccccssccsccccccccsccsccccccc"
         id="path2221"
         d="M 360.125,351.28125 C 353.38077,351.14647 348.91521,355.1218 347.78125,356.09375 C 346.18226,356.78047 332.47611,357.21433 323.28125,368.5625 C 284.16727,378.22318 299.93687,410.98062 303,411.6875 C 292.28938,423.97165 301.57241,434.17632 305.78125,436.9375 C 305.97487,450.61717 311.46991,455.9651 316.375,461.4375 C 320.50767,467.3571 325.2839,472.36181 332.9375,472.59375 C 340.66069,472.69166 346.82732,468.91338 347.4061,468.16014 C 348.64403,466.54906 351.38968,465.53399 352.15222,471.04248 C 352.49834,473.54281 352.55524,474.83761 350.45923,476.33714 C 346.44603,479.20827 328.74256,486.9681 315.96875,496.0625 L 305.375,503.8125 L 290.0625,512.78125 C 283.94412,507.03976 279.3539,499.75597 274.96875,492.28125 C 266.08264,476.67846 260.63081,460.84613 255.8125,443.5 C 255.3305,440.51276 254.26218,437.179 251.1875,435.96875 L 249.75,437.84375 C 248.29649,442.49761 249.07135,446.05284 249.28125,449.875 L 246.6875,448.9375 L 241.90625,445.3125 C 241.90625,445.3125 238.96399,442.59177 239.53125,437.9375 C 239.69681,436.57911 241.6121,434.26312 243.65625,432.03125 C 243.00547,428.016 241.76413,427.33143 239.78125,427.3125 C 233.62895,432.24891 227.60562,436.65388 229,451.21875 C 226.53269,453.51137 223.44128,455.36756 227.84375,462.8125 C 226.58602,464.72153 225.3015,466.34096 227.84375,468.25 C 235.04443,473.24186 241.94208,477.10785 253.40625,479.375 L 255.1875,482.84375 L 256.84375,496.53125 C 259.5004,506.6494 261.37726,517.67523 263.65625,525.75 C 265.73013,533.09801 269.57326,540.22512 275.4375,545.53125 C 264.85877,553.49362 256.28376,557.47131 247.40625,562.03125 L 222.65625,574.5 C 213.92295,580.29699 205.38917,586.29638 198.40625,593.84375 C 194.78001,598.11765 191.11446,601.64211 189.21875,606.78125 L 188.03125,613.625 C 188.03125,613.625 188.38905,620.31904 190.15625,623.5 C 191.92345,626.68096 193.03203,626.70905 195.09375,627.0625 C 197.15548,627.41594 198.40624,625.65624 198.40625,625.65625 L 202.625,617.625 C 202.625,617.625 203.68499,616.32184 204.15625,617.5 C 204.6275,618.67813 204.31251,622.34374 204.3125,622.34375 C 204.3125,622.34375 207.12936,624.99893 209.25,624.46875 C 211.37064,623.93859 211.66315,622.45721 213,620.21875 C 214.33684,617.9803 214.59375,615.50001 214.59375,615.5 L 215.84375,610.3125 L 218.90625,607.25 L 220.0625,604.90625 L 220.78125,601.125 L 222.8125,593.75 C 222.74518,591.85026 224.118,592.09921 226.875,591.84375 C 239.43753,590.01896 243.45538,588.97442 251.75,585.78125 C 260.09864,582.5673 266.86506,578.08828 277.34375,571.6875 C 284.17692,569.90595 291.01058,567.46221 297.84375,563.90625 C 294.81451,572.42271 291.7489,580.92195 287,587.71875 C 283.56713,594.6994 279.64634,600.47329 275.4375,604.90625 C 270.14809,604.73991 268.19789,606.28927 266.71875,608.6875 C 266.87636,608.52989 262.47082,612.51955 257.3125,621.03125 C 252.56717,628.86148 248.37287,639.56844 254.9375,642.125 L 261.0625,642.375 C 262.2492,651.99838 263.34113,659.75158 274.5,665.9375 L 281.8125,667.8125 L 302.78125,669.21875 C 333.15286,669.38404 352.02113,660.13365 358.6875,658.96875 C 365.35387,657.80387 371.93242,658.28456 377.9375,658.625 C 418.82501,662.17013 435.24464,670.75316 444.15625,671.34375 C 448.98552,671.87149 453.30994,672.02814 459.46875,671.59375 C 468.93959,670.49133 474.46992,668.65101 478.3125,664.0625 C 480.87685,658.94376 481.0453,654.22181 480.21875,649.6875 C 483.34496,649.95526 485.90135,648.52741 488.09375,646.625 C 491.6927,643.50211 490.7609,639.53334 490.53125,636.5 C 490.20429,632.18157 486.37024,625.19639 480.21875,618.34375 C 471.41895,608.54097 460.93751,593.59378 460.9375,593.59375 L 448,574.5 C 444.42906,567.75612 441.35683,560.83316 439.6875,554 L 458,575.6875 C 464.01359,580.49035 470.9049,585.1706 478.25,584.46875 C 487.44594,581.67263 490.61727,579.15104 494.78125,573.84375 C 496.7652,571.31506 497.383,568.18044 497.96875,565.53125 C 499.11461,560.34872 499.36917,558.48259 500.46875,552.375 C 501.67158,545.2159 502.50901,537.68345 503.5,530.3125 C 503.94739,525.58886 504.30255,524.76011 505.875,520.4375 C 507.20462,516.78245 513.90977,511.2657 514.78125,508.53125 C 516.8413,502.06735 516.02037,496.15992 515.53125,491.5625 C 515.00155,486.58384 508.11885,472.28746 503.65625,470.75 C 502.10346,470.21503 501.89537,471.60662 501.5625,472.6875 C 500.98453,474.56421 500.93751,478.125 500.9375,478.125 C 501.65014,481.54843 500.92821,484.41416 504.9375,489.15625 L 501.1875,487.75 C 498.39136,487.40513 497.12504,487.77845 495.75,488.96875 C 494.69073,490.65845 493.39246,492.11222 494.59375,496.0625 C 491.10102,498.34022 490.43535,500.59729 491.03125,502.875 C 491.52487,503.70235 491.98672,504.55421 492.96875,505.21875 C 493.96152,505.54859 494.90994,505.95851 496.0625,505.96875 C 496.28864,506.43092 496.15383,507.00525 495.75,507.34375 C 493.36189,509.34561 493.81917,509.63833 491.03125,518.1875 C 488.5424,525.81957 483.54288,534.80223 474.3125,540.34375 C 470.61013,542.56649 468.6939,546.36892 466.9375,549.9375 C 467.09381,547.28665 458.24688,526.80998 453.34375,521.5 C 458.8348,516.72018 461.37966,510.06897 460.1875,498.40625 L 462.0625,491.34375 C 463.44818,486.05903 464.08562,482.27958 464.65625,478.625 C 467.80022,466.83682 469.80986,457.84511 472.19523,448.33275 C 484.56732,446.38065 492.04282,443.90564 495.09997,440.81487 C 496.00676,439.8981 495.76294,436.52793 494.26598,435.75963 C 495.21363,434.63325 495.24765,432.45249 493.28996,430.82843 C 494.59117,428.86819 494.22856,427.41705 492.96605,426.08824 C 492.95368,425.4905 493.99284,423.05723 491.33229,421.67436 C 484.78363,423.02078 479.95586,423.11108 472.40555,422.20381 C 471.1401,422.05524 470.50908,421.27223 470.61096,419.75632 L 473.52855,414.08276 C 477.40703,413.88808 478.73294,414.44409 480.55441,413.51271 C 484.39094,411.55098 484.26057,408.24489 478.4594,407.98108 C 475.59352,407.85075 474.07561,405.71631 469.84287,407.93669 C 467.83682,409.79182 462.6478,415.46917 460.758,421.35812 C 458.78433,429.97494 457.5525,434.99231 458.0625,442.78125 C 449.77715,459.59081 441.3755,479.51087 429.375,497.875 C 417.77856,490.20138 405.9232,482.81358 392.5625,477.15625 L 392.03125,474.15625 C 391.76329,472.06576 392.30572,469.35309 392.75,467.5 C 392.75,467.5 394.42524,466.08324 396.5,468.65625 C 399.3548,472.19663 402.35777,473.1418 404.64847,473.29291 C 417.08509,474.11332 422.48381,466.74704 426.46875,458.34375 C 434.55084,452.96526 440.94069,446.2217 439.6875,433.375 C 440.93282,431.40625 442.2551,429.50639 442.75,427.46875 C 444.20591,421.47437 441.13557,417.08741 438.03125,412.875 C 440.61451,410.35302 442.09351,406.72999 443.4375,402.96875 C 444.32944,397.94205 444.36604,392.93296 442.75,387.90625 C 440.89085,381.24152 433.95442,376.74442 427.90625,371.875 C 423.25299,365.74171 416.00622,354.58818 392.09375,356.3125 C 391.14566,353.76766 380.1267,348.64507 370.625,354.6875 C 366.72244,352.2576 363.19056,351.34251 360.125,351.28125 z M 466.9375,549.96875 C 466.92357,550.13908 466.87993,550.25 466.78125,550.25 C 466.82762,550.1557 466.89092,550.06341 466.9375,549.96875 z M 412.84375,551.75 C 414.52776,561.14338 415.18117,567.73849 419.34375,575.59375 C 426.41599,588.93989 432.80011,598.3323 437.78125,606.8125 C 431.18843,605.92947 425.91814,605.65455 420.1875,606.28125 C 407.80562,586.56728 406.67413,568.6099 412.84375,551.75 z M 329.71875,557.1875 C 335.03314,573.448 332.5351,626.83382 293.25,619.5 C 291.50832,618.49355 307.85853,612.09186 313.5625,605.1875 C 318.92539,589.58842 327.00376,559.08848 329.71875,557.1875 z "
         style="fill:#000000;fill-opacity:1;fill-rule:evenodd;stroke:none;stroke-width:0.5;stroke-linecap:butt;stroke-linejoin:miter;stroke-miterlimit:4;stroke-dasharray:none;stroke-dashoffset:0;stroke-opacity:1;" />
    </g>
    <path
       transform="matrix(1.0705579,0,0,1.0705579,-25.946813,-36.83751)"
       style="opacity:1;fill:#ffffff;fill-opacity:1;stroke:none;stroke-width:0.38675061;stroke-miterlimit:4;stroke-dasharray:none;stroke-dashoffset:0;stroke-opacity:1;filter:url(#filter7343)"
       d="M 318.96875,239.78125 C 230.24074,240.53876 157.30686,277.21861 96.625,363.90625 C 2.9056558,502.78436 9.0615664,623.46555 141.4375,700.875 C 174.79777,720.38308 273.04851,766.38352 327.90625,780.4375 C 385.60088,788.69986 535.93281,882.89165 652.46875,630.5 C 753.32207,412.55513 703.08597,344.394 483.84375,269.9375 C 423.48397,250.22979 368.743,239.3563 318.96875,239.78125 z M 377.875,307.25 C 519.51307,307.25001 634.46875,404.30984 634.46875,523.875 C 634.46872,643.44013 519.51306,740.46875 377.875,740.46875 C 236.23695,740.46876 121.28125,643.44016 121.28125,523.875 C 121.28125,404.30982 236.23694,307.25 377.875,307.25 z "
       id="path7413" />
    <path
       id="path2233"
       d="M 318.96875,239.78125 C 230.24074,240.53876 157.30686,277.21861 96.625,363.90625 C 2.9056558,502.78436 9.0615664,623.46555 141.4375,700.875 C 174.79777,720.38308 273.04851,766.38352 327.90625,780.4375 C 385.60088,788.69986 535.93281,882.89165 652.46875,630.5 C 753.32207,412.55513 703.08597,344.394 483.84375,269.9375 C 423.48397,250.22979 368.743,239.3563 318.96875,239.78125 z M 377.875,307.25 C 519.51307,307.25001 634.46875,404.30984 634.46875,523.875 C 634.46872,643.44013 519.51306,740.46875 377.875,740.46875 C 236.23695,740.46876 121.28125,643.44016 121.28125,523.875 C 121.28125,404.30982 236.23694,307.25 377.875,307.25 z "
       style="opacity:1;fill:#000000;fill-opacity:1;stroke:none;stroke-width:0.38675061;stroke-miterlimit:4;stroke-dasharray:none;stroke-dashoffset:0;stroke-opacity:1;filter:url(#filter12458)"
       transform="matrix(1.0705579,0,0,1.0705579,-25.946813,-36.83751)" />
  </g>
  <g
     id="g16349"
     transform="translate(0,-4.9046484)">
    <flowRoot
       xml:space="preserve"
       id="flowRoot10420"
       style="font-size:28px;fill:#ffffff;filter:url(#filter11449);font-family:Vemana2000"
       transform="matrix(1.0323662,0,0,1.0323662,8.2240661,23.664565)"><flowRegion
         id="flowRegion10422"><rect
           id="rect10424"
           width="251.19287"
           height="56.342327"
           x="6.2602582"
           y="12.963359"
           style="font-size:28px;fill:#ffffff;font-family:Vemana2000" /></flowRegion><flowPara
         id="flowPara10426"
         style="fill:#ffffff;font-family:Vemana2000">Frasba   dal  Lac</flowPara></flowRoot>    <flowRoot
       transform="translate(12.12925,24.649768)"
       style="font-size:28px;fill:#ffffff;font-family:Vemana2000"
       id="flowRoot7391"
       xml:space="preserve"><flowRegion
         id="flowRegion7393"><rect
           style="font-size:28px;fill:#ffffff;font-family:Vemana2000"
           y="12.963359"
           x="6.2602582"
           height="56.342327"
           width="251.19287"
           id="rect7395" /></flowRegion><flowPara
         style="fill:#ffffff;font-family:Vemana2000"
         id="flowPara7397">Frasba   dal  Lac</flowPara></flowRoot>  </g>
</svg>
